<svg width="33" height="41" fill="none" xmlns="http://www.w3.org/2000/svg"><circle cx="15.408" cy="15.428" r="15.408" fill="#fff"/><path d="M0 15.43h8.105v21.33a4.052 4.052 0 01-4.053 4.053H0V15.43z" fill="#fff"/><circle cx="15.402" cy="13.467" r="6.413" fill="#000"/><path d="M8.99 13.465h3.384v8.645c0 .931-.755 1.686-1.687 1.686H8.99V13.465z" fill="#000"/><path d="M43.572 9.244c.954 0 1.76.324 2.416.972.658.648.986 1.435.986 2.36 0 .926-.328 1.713-.985 2.361-.658.649-1.463.973-2.417.973h-1.458v3.055h-2.222V9.244h3.68zm0 4.582c.343 0 .625-.12.847-.36.222-.241.334-.538.334-.89 0-.351-.112-.648-.334-.888a1.102 1.102 0 00-.847-.361h-1.458v2.5h1.458zm6.872 3h3.472v2.139h-5.694V9.244h2.222v7.582zm11.04 2.139L61 17.437h-3.61l-.487 1.528h-2.43l3.305-9.721h2.833l3.305 9.72h-2.43zm-3.43-3.61h2.278l-1.139-3.57-1.138 3.57zm11.115 3.804c-1.454 0-2.662-.481-3.625-1.444-.953-.972-1.43-2.176-1.43-3.61 0-1.436.477-2.635 1.43-3.598.963-.972 2.171-1.458 3.625-1.458.87 0 1.676.204 2.416.611a4.516 4.516 0 011.75 1.639l-1.916 1.11a2.146 2.146 0 00-.917-.874 2.78 2.78 0 00-1.333-.32c-.861 0-1.55.264-2.07.792-.509.528-.763 1.227-.763 2.097 0 .87.254 1.57.764 2.097.518.528 1.208.792 2.069.792.49 0 .935-.107 1.333-.32a2.15 2.15 0 00.917-.874l1.916 1.11a4.52 4.52 0 01-1.736 1.653c-.74.398-1.55.597-2.43.597zm7.568-2.333h3.889v2.139h-6.11V9.244h6.04v2.138h-3.819v1.611h3.472v2.111h-3.472v1.722zM91.74 9.244v9.72h-2.222v-5.651l-2.514 4.124h-.25l-2.513-4.124v5.652h-2.222V9.244h2.222l2.638 4.319 2.639-4.32h2.222zm4.032 7.582h3.888v2.139h-6.11V9.244h6.04v2.138h-3.818v1.611h3.471v2.111h-3.471v1.722zm10.697-7.582h2.222v9.72h-1.667l-3.749-5.276v5.277h-2.222V9.244h1.666l3.75 5.277V9.244zm10.553 0v2.138h-2.499v7.583h-2.222v-7.583h-2.5V9.244h7.221zm-73.45 14c.954 0 1.76.324 2.416.972.658.648.986 1.435.986 2.36 0 .926-.328 1.713-.985 2.361-.658.648-1.463.973-2.417.973h-1.458v3.055h-2.222v-9.722h3.68zm0 4.582c.343 0 .625-.12.847-.36.222-.241.334-.538.334-.89 0-.351-.112-.648-.334-.888a1.102 1.102 0 00-.847-.361h-1.458v2.5h1.458zm9.76 5.139L51.5 29.77h-1.056v3.194h-2.222v-9.722h3.889c.926 0 1.713.325 2.36.973.649.648.973 1.435.973 2.36a2.96 2.96 0 01-.5 1.653 3.34 3.34 0 01-1.292 1.167l2.07 3.569h-2.39zm-2.888-7.638v2.5h1.667a1 1 0 00.778-.362c.222-.24.333-.537.333-.889 0-.351-.111-.648-.334-.888a1 1 0 00-.777-.361h-1.667zm8.683 5.5h3.889v2.138h-6.11v-9.722h6.04v2.14h-3.819v1.61H62.6v2.111h-3.472v1.722zm8.962-7.584c.953 0 1.759.325 2.416.973.657.648.986 1.435.986 2.36 0 .926-.329 1.713-.986 2.361-.657.648-1.463.973-2.416.973H66.63v3.055h-2.222v-9.722h3.68zm0 4.583c.342 0 .624-.12.847-.36.222-.241.333-.538.333-.89a1.26 1.26 0 00-.333-.888 1.102 1.102 0 00-.847-.361H66.63v2.5h1.459zm9.853 5.139l-.486-1.528h-3.61l-.487 1.528h-2.43l3.305-9.722h2.833l3.306 9.722h-2.43zm-3.43-3.61h2.278l-1.14-3.57-1.138 3.57zm11.94 3.61l-1.834-3.194h-1.056v3.194H81.34v-9.722h3.889c.926 0 1.713.325 2.36.973.649.648.973 1.435.973 2.36a2.96 2.96 0 01-.5 1.653 3.34 3.34 0 01-1.291 1.167l2.069 3.569h-2.39zm-2.89-7.638v2.5h1.667a1 1 0 00.778-.362c.222-.24.333-.537.333-.889a1.26 1.26 0 00-.333-.888 1 1 0 00-.778-.361h-1.667zm12.641 7.638l-.486-1.528h-3.61l-.486 1.528h-2.43l3.304-9.722h2.834l3.305 9.722h-2.43zm-3.43-3.61h2.278l-1.139-3.57-1.139 3.57zm12.664-6.111v2.138h-2.5v7.583h-2.222v-7.583h-2.5v-2.139h7.222zm1.112 0h2.222v9.72h-2.222v-9.72zm12.252 8.457c-.981.972-2.175 1.458-3.583 1.458-1.407 0-2.601-.486-3.583-1.458-.981-.972-1.472-2.171-1.472-3.597 0-1.426.491-2.625 1.472-3.597.982-.972 2.176-1.458 3.583-1.458 1.408 0 2.602.486 3.583 1.458.982.972 1.472 2.171 1.472 3.597 0 1.426-.49 2.625-1.472 3.597zm-5.61-1.514c.546.537 1.222.806 2.027.806.806 0 1.477-.269 2.014-.806.546-.537.819-1.231.819-2.083 0-.852-.273-1.546-.819-2.083-.537-.537-1.208-.805-2.014-.805-.805 0-1.481.268-2.027.805-.537.537-.806 1.231-.806 2.083 0 .852.269 1.546.806 2.083zm13.889-6.944h2.222v9.722h-1.667l-3.75-5.278v5.278h-2.222v-9.722h1.667l3.75 5.278v-5.277z" fill="#fff"/></svg>