<svg width="30" height="55" viewBox="0 0 30 61" fill="none" xmlns="http://www.w3.org/2000/svg">
<path d="M9.32394 49.1746L1.65279 54.5362L9.57346 59.8069L18.1198 54.1281L9.32394 49.1746Z" fill="#203165" stroke="black" stroke-linejoin="round"/>
<path d="M1 52.873V20.8846L8.71217 25.2074V47.8298L1 52.873Z" fill="#2B4A78" stroke="black" stroke-linejoin="bevel"/>
<path d="M1.14014 18.7233L8.43164 13.3919V1L1.14014 6.33139V18.7233Z" fill="#2E4C7D" stroke="black" stroke-linejoin="round"/>
<path d="M9.97412 12.8155V1L29.4649 12.8155V28.2333L19.9298 21.3169V19.2996L9.97412 12.8155Z" fill="#2B4A79" stroke="black" stroke-linejoin="round"/>
<path d="M10.1144 39.8327L29.3948 28.3054L19.9299 21.3169L10.1144 27.657V39.8327Z" fill="#223464" stroke="black" stroke-linejoin="round"/>
<path d="M9.62361 14.5446L1 20.8847L8.71217 25.1354L17.1254 19.5158L9.62361 14.5446Z" fill="#213863" stroke="black" stroke-linejoin="round"/>
<path d="M10.1144 47.8298V41.7059L18.3874 36.8788V52.5128L10.1144 47.8298Z" fill="#2B4A79" stroke="black" stroke-linejoin="round"/>
</svg>
