<svg width="200" height="88" viewBox="0 0 150 48" fill="none" xmlns="http://www.w3.org/2000/svg">
<path d="M6.74849 37.3816L0.529366 41.5419L6.95078 45.6318L13.8795 41.2253L6.74849 37.3816Z" fill="#203165"/>
<path d="M0 40.2514V15.4297L6.25238 18.784V36.338L0 40.2514Z" fill="#2B4A78"/>
<path d="M0.113647 13.7526L6.02498 9.6156V0L0.113647 4.13695V13.7526Z" fill="#2E4C7D"/>
<path d="M7.27539 9.16837V0L23.0768 9.16837V21.132L15.3466 15.7651V14.1998L7.27539 9.16837Z" fill="#2B4A79"/>
<path d="M7.38916 30.1326L23.0201 21.1879L15.3467 15.7651L7.38916 20.6847V30.1326Z" fill="#223464"/>
<path d="M6.99129 10.5101L0 15.4297L6.25237 18.7281L13.0731 14.3675L6.99129 10.5101Z" fill="#213863"/>
<path d="M7.38916 36.338V31.5861L14.0963 27.8405V39.9718L7.38916 36.338Z" fill="#2B4A79"/>
<path d="M27.4846 15.8377H36.2446C38.8446 15.8377 40.7246 16.1577 41.8846 16.7977C43.0446 17.4177 43.6246 18.4677 43.6246 19.9477V23.3677C43.6246 24.5077 43.2146 25.4077 42.3946 26.0677C41.5946 26.7077 40.5246 27.1177 39.1846 27.2977L44.8246 35.3077H39.4246L34.3246 27.6577H32.1646V35.3077H27.4846V15.8377ZM36.1846 24.5677C37.2846 24.5677 38.0346 24.4277 38.4346 24.1477C38.8346 23.8477 39.0346 23.2777 39.0346 22.4377V21.0577C39.0346 20.3377 38.8146 19.8477 38.3746 19.5877C37.9546 19.3077 37.2246 19.1677 36.1846 19.1677H32.1646V24.5677H36.1846ZM52.6837 15.8377H58.3837L65.4037 35.3077H60.6637L58.9237 30.1777H51.8137L50.1037 35.3077H45.4837L52.6837 15.8377ZM57.9037 27.0577L55.4437 19.7377H55.3237L52.8637 27.0577H57.9037ZM76.8328 35.6077C75.7128 35.6077 74.7228 35.5577 73.8628 35.4577C73.0028 35.3577 72.1528 35.1877 71.3128 34.9477C70.4128 34.7077 69.6728 34.3877 69.0928 33.9877C68.5128 33.5677 68.0428 33.0277 67.6828 32.3677C67.3228 31.6677 67.1428 30.8677 67.1428 29.9677V21.8677C67.1428 20.8877 67.3428 20.0077 67.7428 19.2277C68.1428 18.4277 68.6828 17.7977 69.3628 17.3377C70.0028 16.9177 70.7628 16.5577 71.6428 16.2577C72.5428 15.9577 73.4228 15.7577 74.2828 15.6577C75.0028 15.5777 75.8728 15.5377 76.8928 15.5377C79.6528 15.5377 82.2928 15.7477 84.8128 16.1677V19.7077C82.4928 19.1477 79.8528 18.8677 76.8928 18.8677C73.5128 18.8677 71.8228 19.8477 71.8228 21.8077V29.6377C71.8228 30.5977 72.2728 31.2777 73.1728 31.6777C74.0928 32.0777 75.4728 32.2777 77.3128 32.2777C78.2928 32.2777 79.3428 32.1277 80.4628 31.8277V27.2977H77.2828V24.2377H84.9328V34.3477C83.9328 34.7077 82.6528 35.0077 81.0928 35.2477C79.5528 35.4877 78.1328 35.6077 76.8328 35.6077ZM93.8751 15.8377H99.5751L106.595 35.3077H101.855L100.115 30.1777H93.0051L91.2951 35.3077H86.6751L93.8751 15.8377ZM99.0951 27.0577L96.6351 19.7377H96.5151L94.0551 27.0577H99.0951ZM113.254 19.1677H107.254V15.8377H123.904V19.1677H117.934V35.3077H113.254V19.1677ZM126.596 15.8377H131.276V35.3077H126.596V15.8377Z" fill="#263E63"/>
</svg>
